# xmcd
#
# Track frame offsets:
#	150
#	17733
#	38211
#	57354
#	71563
#	91093
#	109304
#	128720
#	149194
#	165219
#	180583
#	194944
#	212268
#	231885
#	254713
#	271111
#	291491
#	315016
#	332259
#
# Disc length: 4682 seconds
#
# Revision: 0
# Processed by: cddbd v1.5.2PL0 Copyright (c) Steve Scherf et al.
# Submitted via: EZCDAudioConverter 4.0.9.1
#
DISCID=15124813
DTITLE=萧亚轩 - 我不属于你
DYEAR=1900
DGENRE=
TTITLE0=幸福的地图
TTITLE1=一辈子做你的女孩
TTITLE2=我就是我
TTITLE3=开始爱
TTITLE4=进行式
TTITLE5=爱上爱
TTITLE6=不配
TTITLE7=想到你
TTITLE8=爱情专用
TTITLE9=魔术
TTITLE10=原始
TTITLE11=突然想起你
TTITLE12=最熟悉的陌生人
TTITLE13=下一次恋爱
TTITLE14=Cappuccino
TTITLE15=雨季中
TTITLE16=爱是个坏东西
TTITLE17=甩啦甩啦
TTITLE18=天使暂时离开
EXTD=
EXTT0=
EXTT1=
EXTT2=
EXTT3=
EXTT4=
EXTT5=
EXTT6=
EXTT7=
EXTT8=
EXTT9=
EXTT10=
EXTT11=
EXTT12=
EXTT13=
EXTT14=
EXTT15=
EXTT16=
EXTT17=
EXTT18=
PLAYORDER=
